<svg xmlns="http://www.w3.org/2000/svg" xmlns:xlink="http://www.w3.org/1999/xlink" id="Layer_1" data-name="Layer 1" viewBox="163.51 312.22 1882.5 307.02">
  <defs>
    <style>
      .cls-1 {
        fill: url(#linear-gradient-12);
      }

      .cls-1, .cls-2, .cls-3, .cls-4, .cls-5, .cls-6, .cls-7, .cls-8, .cls-9, .cls-10, .cls-11, .cls-12, .cls-13 {
        stroke-width: 0px;
      }

      .cls-2 {
        fill: url(#linear-gradient);
      }

      .cls-3 {
        fill: url(#linear-gradient-6);
      }

      .cls-4 {
        fill: url(#linear-gradient-11);
      }

      .cls-5 {
        fill: url(#linear-gradient-5);
      }

      .cls-6 {
        fill: #fff;
      }

      .cls-7 {
        fill: url(#linear-gradient-2);
      }

      .cls-8 {
        fill: url(#linear-gradient-7);
      }

      .cls-9 {
        fill: url(#linear-gradient-3);
      }

      .cls-10 {
        fill: url(#linear-gradient-9);
      }

      .cls-11 {
        fill: url(#linear-gradient-8);
      }

      .cls-12 {
        fill: url(#linear-gradient-10);
      }

      .cls-13 {
        fill: url(#linear-gradient-4);
      }
    </style>
    <linearGradient id="linear-gradient" x1="159.32" y1="622.73" x2="396.68" y2="387.59" gradientUnits="userSpaceOnUse">
      <stop offset="0" stop-color="#ff4341"/>
      <stop offset=".5" stop-color="#ff38ff"/>
      <stop offset="1" stop-color="#0af"/>
    </linearGradient>
    <linearGradient id="linear-gradient-2" x1="159.07" y1="622.48" x2="396.42" y2="387.33" xlink:href="#linear-gradient"/>
    <linearGradient id="linear-gradient-3" x1="158.67" y1="622.07" x2="396.03" y2="386.93" xlink:href="#linear-gradient"/>
    <linearGradient id="linear-gradient-4" x1="158.79" y1="622.2" x2="396.15" y2="387.05" xlink:href="#linear-gradient"/>
    <linearGradient id="linear-gradient-5" x1="-1207.94" y1="2845.7" x2="-1187.09" y2="2803.16" gradientTransform="translate(3056.15 -684.6) rotate(45)" gradientUnits="userSpaceOnUse">
      <stop offset="0" stop-color="#39002b"/>
      <stop offset=".2" stop-color="#39002b" stop-opacity=".65"/>
      <stop offset=".47" stop-color="#39002b" stop-opacity=".29"/>
      <stop offset=".74" stop-color="#39002b" stop-opacity=".07"/>
      <stop offset="1" stop-color="#39002b" stop-opacity="0"/>
    </linearGradient>
    <linearGradient id="linear-gradient-6" x1="-1187.24" y1="2815.14" x2="-1146.4" y2="2817.53" xlink:href="#linear-gradient-5"/>
    <linearGradient id="linear-gradient-7" x1="5632.38" y1="2845.7" x2="5653.23" y2="2803.16" gradientTransform="translate(6304.19 2563.44) rotate(-135) scale(1 -1)" xlink:href="#linear-gradient-5"/>
    <linearGradient id="linear-gradient-8" x1="-1117.76" y1="2848.1" x2="-1089.05" y2="2815.29" xlink:href="#linear-gradient-5"/>
    <linearGradient id="linear-gradient-9" x1="-1061.95" y1="2814.9" x2="-1091" y2="2817.12" xlink:href="#linear-gradient-5"/>
    <linearGradient id="linear-gradient-10" x1="-1054.86" y1="2741.42" x2="-1019.48" y2="2743.3" xlink:href="#linear-gradient-5"/>
    <linearGradient id="linear-gradient-11" x1="5150.07" y1="2741.42" x2="5185.44" y2="2743.3" gradientTransform="translate(5854.9 2114.14) rotate(-135) scale(1 -1)" xlink:href="#linear-gradient-5"/>
    <linearGradient id="linear-gradient-12" x1="-1137.37" y1="2841.04" x2="-1150.19" y2="2864.62" xlink:href="#linear-gradient-5"/>
  </defs>
  <g>
    <g>
      <polygon class="cls-2" points="188.11 543.76 163.51 619.24 238.92 594.33 229.18 553.57 188.11 543.76"/>
      <path class="cls-7" d="m419.9,478.75h0s29.9-29.9,29.9-29.9l20.74-136.63-136.63,20.74-29.9,29.9-73.76,11.19-61.71,61.71,23.01,95.87.48.11,33.88,8.1,13.73,3.28h0s0,0,0,0l3.28,13.73,8.01,33.51.2.85,95.87,23.01,61.71-61.71,11.19-73.75Zm13.11-129.01l-12.77,84.16-96.87,96.87-14.37-3.43-3.45-.82-26.08-6.23h0s-13.27-3.17-13.27-3.17l-.46-.11-1.24-5.2-6.01-25.14-3.09-12.91-3.43-14.37,96.87-96.87,84.16-12.77Zm-229.76,95.81l41.94-41.94,21.29-3.23-49.2,49.2h0s-10.53,10.53-10.53,10.53l-3.49-14.56Zm22.61,39.96l2.16,9.02,3.41,14.28-13.73-3.28h-.06s-2.28-9.52-2.28-9.52l10.5-10.5Zm60.89,81.89l-9.51-2.28v-.06s-3.29-13.73-3.29-13.73l12.28,2.93,11.03,2.64-10.5,10.5Zm50.45,12.11l-14.56-3.49,59.73-59.73-3.23,21.28-41.94,41.94Z"/>
      <path class="cls-9" d="m352.79,412.7c.4,2.06,1.1,4.08,2.1,5.99,1,1.91,2.3,3.69,3.89,5.28,2.12,2.12,4.59,3.73,7.22,4.79,3.95,1.6,8.25,2,12.37,1.2,2.06-.4,4.08-1.1,5.99-2.1,1.91-1,3.69-2.3,5.28-3.89,2.12-2.12,3.73-4.59,4.79-7.22,1.6-3.95,2-8.25,1.2-12.37-.4-2.06-1.1-4.08-2.1-5.99-1-1.91-2.3-3.69-3.89-5.28-2.12-2.12-4.59-3.73-7.22-4.79-3.95-1.6-8.25-2-12.37-1.2-2.06.4-4.08,1.1-5.99,2.1-1.91,1-3.69,2.3-5.28,3.89-2.12,2.12-3.73,4.59-4.79,7.22-1.6,3.95-2,8.25-1.2,12.37Zm18.67-10.92c1.31-.53,2.77-.67,4.15-.4.69.13,1.36.37,1.99.7.63.33,1.22.76,1.77,1.31.73.73,1.25,1.54,1.6,2.41.53,1.31.67,2.77.4,4.15-.13.69-.37,1.36-.7,1.99-.33.63-.76,1.22-1.31,1.77-.73.73-1.54,1.25-2.41,1.6-1.31.53-2.77.67-4.15.4-.69-.13-1.36-.37-1.99-.7-.63-.33-1.22-.76-1.77-1.31-.73-.73-1.25-1.54-1.6-2.41-.53-1.31-.67-2.77-.4-4.15.13-.69.37-1.36.7-1.99.33-.63.76-1.22,1.31-1.77.73-.73,1.54-1.25,2.41-1.6Z"/>
      <polygon class="cls-13" points="292.61 483.29 299.46 490.14 354.95 441.5 341.26 427.8 292.61 483.29"/>
    </g>
    <polygon class="cls-5" points="206.74 460.12 215.35 496.01 265.08 446.28 242.82 424.03 206.74 460.12"/>
    <polygon class="cls-3" points="251.97 459.39 225.85 485.51 231.42 508.81 265.74 517.01 251.97 459.39"/>
    <polygon class="cls-8" points="322.64 576.01 286.75 567.4 336.47 517.67 358.72 539.93 322.64 576.01"/>
    <polygon class="cls-11" points="323.36 530.78 297.24 556.9 273.94 551.33 265.74 517.01 323.36 530.78"/>
    <polygon class="cls-10" points="323.36 530.78 297.24 556.9 273.94 551.33 265.74 517.01 323.36 530.78"/>
    <polygon class="cls-12" points="419.9 478.75 382.37 516.28 371.17 590.04 408.7 552.51 419.9 478.75"/>
    <polygon class="cls-4" points="304 362.85 266.47 400.38 192.71 411.58 230.25 374.05 304 362.85"/>
    <polygon class="cls-1" points="231.42 508.81 239.63 543.13 191.54 531.63 217.67 505.5 231.42 508.81"/>
  </g>
  <g>
    <path class="cls-6" d="m691.14,530.03c-6.6,0-12.38-.31-17.33-.94-4.95-.62-9.31-1.65-13.06-3.07-3.76-1.42-7.06-3.27-9.9-5.55-2.85-2.28-5.55-5.01-8.12-8.2-2.56-3.19-5.12-6.92-7.68-11.19-2.56-4.27-5.38-9.14-8.45-14.6-.23-.45-.4-.85-.51-1.2h-52.77v41.5c0,2.28-1.14,3.41-3.42,3.41h-28.18c-2.28,0-3.41-1.14-3.41-3.41v-62.84c0-2.28,1.14-3.42,3.41-3.42h86.92c2.85,0,5.72-.28,8.62-.85,2.91-.57,5.55-1.54,7.94-2.9,2.39-1.37,4.32-3.19,5.81-5.46,1.48-2.28,2.22-5.12,2.22-8.54s-.74-6.23-2.22-8.45c-1.48-2.22-3.41-3.95-5.81-5.21-2.39-1.25-5.04-2.11-7.94-2.56-2.9-.45-5.78-.68-8.62-.68h-60.79c-4.21,0-8.31-.11-12.29-.34-3.99-.23-7.51-1-10.59-2.3s-5.55-3.42-7.43-6.32c-1.88-2.9-2.82-7.09-2.82-12.55,0-2.28,1.14-3.42,3.41-3.42h90.85c7.51,0,14.83.46,21.94,1.37,7.11.91,13.49,2.82,19.12,5.72,5.64,2.9,10.16,7.09,13.58,12.55,3.42,5.46,5.13,12.81,5.13,22.03,0,4.9-.77,9.28-2.3,13.15-1.54,3.87-3.62,7.34-6.23,10.42-2.62,3.08-5.69,5.72-9.22,7.94s-7.34,4.13-11.44,5.72l31.42,49.18h.17l.51.51-.51.51Z"/>
    <path class="cls-6" d="m782.84,531.56c-10.58,0-20.83-1.11-30.74-3.33-9.9-2.22-18.7-5.89-26.38-11.01-7.68-5.12-13.86-11.84-18.53-20.15-4.67-8.31-7-18.5-7-30.57s2.24-22.31,6.74-30.74c4.5-8.42,10.5-15.28,18.02-20.58,7.51-5.29,16.19-9.16,26.04-11.61,9.85-2.45,20.12-3.67,30.82-3.67s20.97,1.23,30.83,3.67c9.84,2.45,18.55,6.32,26.13,11.61,7.57,5.29,13.63,12.15,18.19,20.58,4.55,8.43,6.83,18.67,6.83,30.74s-2.22,22.09-6.66,30.4c-4.44,8.31-10.42,15.03-17.93,20.15-7.51,5.12-16.14,8.82-25.87,11.1-9.73,2.27-19.89,3.41-30.48,3.41Zm-47.47-65.23c0,8.31,1.05,15.09,3.16,20.32,2.11,5.24,5.15,9.34,9.14,12.3,3.98,2.96,8.91,4.98,14.77,6.06s12.55,1.62,20.07,1.62,14.14-.57,19.89-1.71c5.74-1.14,10.58-3.21,14.52-6.23,3.93-3.01,6.91-7.11,8.96-12.29,2.05-5.18,3.08-11.87,3.08-20.07s-1.03-14.97-3.08-20.32c-2.05-5.35-5.04-9.62-8.96-12.81-3.93-3.19-8.8-5.41-14.6-6.66-5.8-1.25-12.52-1.88-20.15-1.88s-14.38.63-20.24,1.88c-5.86,1.25-10.76,3.45-14.68,6.58-3.93,3.13-6.89,7.37-8.88,12.72-1.99,5.35-2.99,12.18-2.99,20.49Z"/>
    <path class="cls-6" d="m1018.84,526.27c0,2.28-1.14,3.41-3.41,3.41h-14.17l-28.35.17h-14.17c-10.59,0-20.78-1.05-30.57-3.16-9.79-2.11-18.44-5.61-25.96-10.5-7.51-4.89-13.52-11.44-18.02-19.64-4.5-8.2-6.74-18.33-6.74-30.4s2.27-22.2,6.83-30.4c4.55-8.2,10.59-14.8,18.1-19.81,7.51-5.01,16.16-8.59,25.96-10.76,9.79-2.16,19.92-3.24,30.4-3.24h14.17l28.35-.17h14.17c2.27,0,3.41,1.14,3.41,3.42v17.93c0,2.28-1.14,3.42-3.41,3.42h-14.17l-28.35.17h-14.17c-7.18,0-13.63.46-19.38,1.37-5.75.91-10.59,2.73-14.52,5.46-3.93,2.73-6.95,6.58-9.05,11.53-2.11,4.95-3.16,11.53-3.16,19.72s1.03,14.55,3.08,19.73c2.05,5.18,5.04,9.31,8.96,12.38,3.93,3.07,8.77,5.21,14.52,6.4,5.75,1.2,12.27,1.79,19.56,1.79h14.17l28.35-.17h14.17c2.27,0,3.41,1.14,3.41,3.42v17.93Z"/>
    <path class="cls-6" d="m1039.68,530.03c-2.28,0-3.42-1.14-3.42-3.42l-.34-121.42c0-2.28,1.14-3.42,3.41-3.42h28.18c2.27,0,3.41,1.14,3.41,3.42v40.47h48.84l26.64-42.69c.23-.46.63-.83,1.19-1.11.57-.28,1.14-.43,1.71-.43l29.72-.17c.79,0,1.62.17,2.47.51.86.34,1.28.97,1.28,1.88,0,.46-.63,1.79-1.88,4.01-1.25,2.22-2.82,4.9-4.7,8.03-1.88,3.13-3.96,6.49-6.23,10.07-2.28,3.59-4.47,7.03-6.57,10.33-2.11,3.3-3.99,6.23-5.64,8.79-1.65,2.56-2.76,4.36-3.33,5.38,4.55,1.26,8.82,2.96,12.81,5.12,3.98,2.16,7.43,4.78,10.33,7.86,2.9,3.07,5.18,6.63,6.83,10.67,1.65,4.04,2.47,8.57,2.47,13.58v38.59c0,2.28-1.14,3.42-3.41,3.42l-28.01.17c-2.28,0-3.41-1.14-3.41-3.41v-38.42c0-4.21-1.45-7.48-4.36-9.82-2.9-2.33-6.37-4.07-10.42-5.21-4.04-1.14-8.26-1.82-12.63-2.05-4.38-.23-8.06-.34-11.02-.34h-42.52v56.01c0,2.28-1.14,3.42-3.41,3.42l-28.01.17Z"/>
    <path class="cls-6" d="m1202.25,405.19c0-2.28,1.14-3.42,3.41-3.42h111.85c2.27,0,3.41,1.14,3.41,3.42v18.1c0,2.28-1.14,3.42-3.41,3.42h-94.09c-4.44,0-8.03-.31-10.76-.94-2.73-.62-4.87-1.73-6.4-3.33-1.54-1.59-2.59-3.78-3.16-6.57-.57-2.79-.85-6.35-.85-10.67Zm3.41,124.66c-2.28,0-3.41-1.14-3.41-3.42v-71.21c0-2.28,1.14-3.42,3.41-3.42h111.85c2.27,0,3.41,1.14,3.41,3.42v17.76c0,2.28-1.14,3.41-3.41,3.41h-80.26v28.69h80.26c2.27,0,3.41,1.14,3.41,3.42v17.93c0,2.28-1.14,3.42-3.41,3.42h-111.85Z"/>
    <path class="cls-6" d="m1398.46,530.03c-2.16,0-3.24-1.14-3.24-3.42v-100.75h-36.88c-4.1,0-7.66-.31-10.67-.94-3.02-.62-5.49-1.73-7.43-3.33-1.94-1.59-3.36-3.78-4.27-6.58-.91-2.79-1.36-6.4-1.36-10.84,0-2.28,1.14-3.42,3.41-3.42h148.91c2.28,0,3.42,1.14,3.42,3.42v17.76c0,2.28-1.14,3.42-3.42,3.42l-56.69.17v101.1c0,2.28-1.14,3.42-3.41,3.42h-28.35Z"/>
    <path class="cls-6" d="m1506.05,530.03c-2.16,0-3.24-1.14-3.24-3.42,0-4.78.82-8.59,2.47-11.44,1.65-2.84,3.87-4.98,6.66-6.4,2.79-1.42,6-2.36,9.65-2.82,3.64-.45,7.4-.68,11.27-.68h67.46c2.16,0,4.64-.11,7.43-.34,2.79-.23,5.43-.79,7.94-1.71,2.5-.91,4.61-2.22,6.32-3.93,1.71-1.71,2.56-4.04,2.56-7,0-3.53-1.05-6.29-3.16-8.28-2.11-1.99-4.7-3.47-7.77-4.44-3.08-.97-6.29-1.56-9.65-1.79-3.36-.23-6.35-.34-8.97-.34h-49.18c-6.49,0-12.41-.65-17.76-1.96-5.35-1.31-9.94-3.47-13.75-6.49-3.82-3.02-6.77-6.94-8.88-11.78-2.11-4.84-3.16-10.79-3.16-17.84s1.11-12.49,3.33-17.33c2.22-4.84,5.26-8.85,9.14-12.04,3.87-3.19,8.45-5.52,13.74-7,5.29-1.48,11.07-2.22,17.34-2.22h96.48c2.16,0,3.24,1.14,3.24,3.42,0,4.33-.86,7.88-2.56,10.67-1.71,2.79-3.99,4.98-6.83,6.57-2.85,1.6-6.01,2.68-9.48,3.24-3.47.57-7.03.85-10.67.85h-58.91c-2.51,0-4.96.09-7.34.26-2.39.17-4.55.68-6.49,1.54-1.94.85-3.5,2.19-4.7,4.01-1.19,1.82-1.79,4.33-1.79,7.51s.57,5.72,1.71,7.6c1.14,1.88,2.67,3.24,4.61,4.1,1.93.85,4.12,1.4,6.57,1.62,2.44.23,4.92.34,7.43.34h52.25c6.71,0,13.12.63,19.21,1.88,6.09,1.25,11.44,3.41,16.05,6.49,4.61,3.07,8.28,7.15,11.02,12.21,2.73,5.07,4.1,11.47,4.1,19.21s-1.42,13.72-4.27,18.62c-2.85,4.9-6.6,8.77-11.27,11.61-4.67,2.85-10.05,4.81-16.14,5.89-6.09,1.08-12.32,1.62-18.7,1.62h-103.31Z"/>
    <path class="cls-6" d="m1677.15,530.03c-2.28,0-3.42-1.14-3.42-3.42l-.34-121.42c0-2.28,1.14-3.42,3.41-3.42h28.18c2.27,0,3.41,1.14,3.41,3.42v40.47h48.84l26.64-42.69c.23-.46.63-.83,1.19-1.11.57-.28,1.14-.43,1.71-.43l29.72-.17c.79,0,1.62.17,2.47.51.86.34,1.28.97,1.28,1.88,0,.46-.63,1.79-1.88,4.01-1.25,2.22-2.82,4.9-4.7,8.03-1.88,3.13-3.96,6.49-6.23,10.07-2.28,3.59-4.47,7.03-6.57,10.33-2.11,3.3-3.99,6.23-5.64,8.79-1.65,2.56-2.76,4.36-3.33,5.38,4.55,1.26,8.82,2.96,12.81,5.12,3.98,2.16,7.43,4.78,10.33,7.86,2.9,3.07,5.18,6.63,6.83,10.67,1.65,4.04,2.47,8.57,2.47,13.58v38.59c0,2.28-1.14,3.42-3.41,3.42l-28.01.17c-2.28,0-3.41-1.14-3.41-3.41v-38.42c0-4.21-1.45-7.48-4.36-9.82-2.9-2.33-6.37-4.07-10.42-5.21-4.04-1.14-8.26-1.82-12.63-2.05-4.38-.23-8.06-.34-11.02-.34h-42.52v56.01c0,2.28-1.14,3.42-3.41,3.42l-28.01.17Z"/>
    <path class="cls-6" d="m1843.48,530.03c-2.28,0-3.42-1.14-3.42-3.42l-.34-121.42c0-2.28,1.14-3.42,3.41-3.42h28.01c2.28,0,3.42,1.14,3.42,3.42l.34,121.24c0,2.28-1.14,3.42-3.41,3.42l-28.01.17Z"/>
    <path class="cls-6" d="m1898.98,530.2c-2.28,0-3.41-1.14-3.41-3.41v-62.84c0-2.28,1.14-3.42,3.41-3.42h86.92c2.85,0,5.72-.28,8.62-.85,2.91-.57,5.55-1.54,7.94-2.9,2.39-1.37,4.32-3.19,5.81-5.46,1.48-2.28,2.22-5.12,2.22-8.54s-.74-6.23-2.22-8.45c-1.48-2.22-3.41-3.95-5.81-5.21-2.39-1.25-5.04-2.11-7.94-2.56-2.9-.45-5.78-.68-8.62-.68h-60.79c-4.21,0-8.31-.11-12.29-.34-3.99-.23-7.51-1-10.59-2.3-3.08-1.31-5.55-3.42-7.43-6.32-1.88-2.9-2.82-7.09-2.82-12.55,0-2.28,1.14-3.42,3.41-3.42h90.85c7.51,0,14.83.46,21.94,1.37,7.11.91,13.49,2.82,19.12,5.72,5.64,2.9,10.16,7.09,13.58,12.55,3.42,5.46,5.13,12.81,5.13,22.03,0,7.85-1.94,14.49-5.81,19.89-3.87,5.41-8.77,9.82-14.68,13.23-5.92,3.42-12.44,5.86-19.55,7.34-7.12,1.48-13.92,2.22-20.41,2.22h-54.99v41.5c0,2.28-1.14,3.41-3.42,3.41h-28.18Z"/>
  </g>
</svg>